<svg width="289" height="33" viewBox="0 0 289 33" fill="none" xmlns="http://www.w3.org/2000/svg">
<path d="M22.809 12.3384V10.4707C22.809 10.3541 22.7287 10.253 22.6148 10.222C17.7395 8.97336 13.8357 5.06954 12.5871 0.194285C12.5586 0.0803044 12.4549 0 12.3384 0H10.4733C10.3541 0 10.2531 0.0803044 10.2246 0.194285C8.97339 5.06954 5.06954 8.97336 0.194285 10.222C0.0803044 10.253 0 10.3541 0 10.4707V12.3384C0 12.455 0.0803044 12.556 0.194285 12.5871C2.60083 13.201 4.76647 14.4652 6.4969 16.1697C6.60052 16.2707 6.60052 16.4391 6.4969 16.5401C4.76647 18.2472 2.59823 19.5062 0.194285 20.1227C0.0803044 20.1512 0 20.2523 0 20.3714V22.2366C0 22.3557 0.0803044 22.4567 0.194285 22.4852C5.06954 23.7338 8.97339 27.6402 10.2246 32.5129C10.2531 32.6269 10.3541 32.7072 10.4733 32.7072H12.3384C12.4549 32.7072 12.5586 32.6269 12.5871 32.5129C13.8357 27.6402 17.7395 23.7338 22.6148 22.4852C22.7287 22.4567 22.809 22.3557 22.809 22.2366V20.3714C22.809 20.2523 22.7287 20.1512 22.6148 20.1227C20.2108 19.5062 18.0426 18.2447 16.3148 16.5401C16.2111 16.4391 16.2111 16.2707 16.3148 16.1697C18.0426 14.4626 20.2082 13.201 22.6148 12.5871C22.7287 12.556 22.809 12.455 22.809 12.3384ZM18.6254 21.076C18.8145 21.1745 18.8145 21.4387 18.6254 21.5371C15.6464 23.0888 13.1881 25.5472 11.6364 28.5262C11.5379 28.7153 11.2737 28.7153 11.1753 28.5262C9.62358 25.5472 7.16523 23.0888 4.1862 21.5371C3.99709 21.4387 3.99709 21.1745 4.1862 21.076C5.56691 20.3585 6.83366 19.444 7.95274 18.3741C8.06931 18.2627 8.25842 18.2809 8.3465 18.413C9.19617 19.6875 9.8386 21.1045 10.2246 22.6148C10.2531 22.7287 10.3541 22.809 10.4733 22.809H12.3384C12.4549 22.809 12.5586 22.7287 12.5871 22.6148C12.9731 21.1045 13.6155 19.6875 14.4626 18.413C14.5507 18.2783 14.7398 18.2627 14.8563 18.3741C15.9754 19.4414 17.2447 20.3559 18.6254 21.076ZM9.85673 16.206C10.3463 15.535 10.7893 14.8278 11.1753 14.0896C11.2737 13.9005 11.5405 13.9005 11.639 14.0896C12.0249 14.8278 12.4653 15.5376 12.9575 16.206C13.0249 16.2966 13.0249 16.4184 12.9575 16.509C12.4679 17.1799 12.0249 17.8872 11.639 18.6255C11.5405 18.8146 11.2737 18.8146 11.1753 18.6255C10.7893 17.8872 10.3489 17.1774 9.85673 16.509C9.78937 16.4184 9.78937 16.2966 9.85673 16.206ZM18.6254 11.6364C17.2447 12.3566 15.9754 13.2684 14.8563 14.3382C14.7398 14.4496 14.5507 14.4315 14.4626 14.2993C13.6155 13.0248 12.9731 11.6105 12.5871 10.1002C12.5586 9.98623 12.4549 9.90593 12.3384 9.90593H10.4733C10.3541 9.90593 10.2531 9.98623 10.2246 10.1002C9.8386 11.6105 9.19617 13.0274 8.3465 14.2993C8.25842 14.434 8.06931 14.4496 7.95274 14.3382C6.83366 13.2684 5.56691 12.3565 4.1862 11.6389C3.99709 11.5405 3.99709 11.2737 4.1862 11.1753C7.16523 9.62361 9.62358 7.16526 11.1753 4.18623C11.2737 3.99713 11.5379 3.99713 11.6364 4.18623C13.1881 7.16526 15.6464 9.62361 18.6254 11.1753C18.8145 11.2737 18.8145 11.5405 18.6254 11.6389V11.6364Z" fill="url(#paint0_linear_92_13548)"/>
<path d="M53.7534 13.0352H51.4038C51.2821 13.0352 51.1785 12.9471 51.1526 12.8279C51.036 12.2995 50.8443 11.828 50.5775 11.4162C50.277 10.9499 49.9091 10.5535 49.4739 10.2297C49.0387 9.90589 48.5517 9.65984 48.0155 9.49405C47.4793 9.32826 46.9094 9.24531 46.3084 9.24531C45.223 9.24531 44.2516 9.51735 43.3967 10.0639C42.5418 10.6105 41.8658 11.411 41.3736 12.4653C40.8788 13.5196 40.6327 14.8071 40.6327 16.3303C40.6327 17.8534 40.8788 19.1564 41.3736 20.2134C41.8683 21.2677 42.5444 22.0655 43.4019 22.6043C44.2593 23.1432 45.2256 23.4126 46.3006 23.4126C46.8964 23.4126 47.4611 23.3323 47.9974 23.1691C48.5336 23.0059 49.0206 22.765 49.4558 22.4464C49.891 22.1277 50.2614 21.7366 50.5645 21.2729C50.8339 20.8636 51.0282 20.3999 51.15 19.8818C51.1785 19.7626 51.2795 19.6771 51.4012 19.6771L53.7508 19.6849C53.914 19.6849 54.0383 19.8351 54.0073 19.9931C53.8415 20.8014 53.5669 21.5501 53.1757 22.2391C52.7379 23.0163 52.1758 23.6846 51.4919 24.2441C50.808 24.8063 50.0283 25.2389 49.1501 25.5445C48.272 25.8502 47.3161 26.0057 46.2799 26.0057C44.6479 26.0057 43.1947 25.6171 41.9201 24.8425C40.6456 24.068 39.6405 22.9541 38.9074 21.5086C38.1743 20.0605 37.8091 18.3353 37.8091 16.3303C37.8091 14.3252 38.1769 12.5896 38.9126 11.1467C39.6483 9.70384 40.6534 8.59257 41.9305 7.81543C43.205 7.04088 44.6557 6.65225 46.2825 6.65225C47.2824 6.65225 48.215 6.79477 49.0828 7.07972C49.9506 7.36467 50.7303 7.78175 51.4245 8.33093C52.1162 8.88011 52.6913 9.54845 53.1446 10.3359C53.5513 11.0431 53.8414 11.841 54.0124 12.7295C54.0435 12.8876 53.9166 13.0352 53.756 13.0352H53.7534Z" fill="url(#paint1_linear_92_13548)"/>
<path d="M76.94 16.3277C76.94 18.3379 76.5721 20.0658 75.8364 21.5112C75.1007 22.9567 74.0931 24.0655 72.8134 24.84C71.5337 25.6171 70.083 26.0031 68.4588 26.0031C66.8346 26.0031 65.3736 25.6146 64.0939 24.84C62.8142 24.0655 61.8091 22.9515 61.0708 21.5061C60.3351 20.058 59.9673 18.3327 59.9673 16.3277C59.9673 14.3227 60.3351 12.5871 61.0708 11.1442C61.8065 9.70131 62.8142 8.59003 64.0939 7.8129C65.3736 7.03835 66.8268 6.64978 68.4588 6.64978C70.0908 6.64978 71.5363 7.03835 72.8134 7.8129C74.0931 8.59003 75.0982 9.69872 75.8364 11.1442C76.5747 12.5897 76.94 14.3175 76.94 16.3277ZM74.1241 16.3277C74.1241 14.7942 73.8781 13.5015 73.3833 12.4498C72.8885 11.3981 72.215 10.6002 71.3601 10.0588C70.5053 9.51481 69.5364 9.24537 68.4588 9.24537C67.3812 9.24537 66.4046 9.5174 65.5523 10.0588C64.7 10.6002 64.0265 11.3981 63.5343 12.4498C63.0395 13.5015 62.7935 14.7942 62.7935 16.3277C62.7935 17.8613 63.0395 19.1539 63.5343 20.2056C64.0291 21.2574 64.7 22.0552 65.5523 22.5966C66.4046 23.1406 67.3734 23.4101 68.4588 23.4101C69.5442 23.4101 70.5053 23.138 71.3601 22.5966C72.215 22.0552 72.8911 21.2574 73.3833 20.2056C73.8781 19.1539 74.1241 17.8613 74.1241 16.3277Z" fill="url(#paint2_linear_92_13548)"/>
<path d="M98.7879 7.16792V25.4903C98.7879 25.6327 98.6713 25.7493 98.5289 25.7493H96.3114C96.2259 25.7493 96.1456 25.7078 96.099 25.6379L86.5998 11.9318H86.4262V25.4903C86.4262 25.6327 86.3096 25.7493 86.1672 25.7493H83.8435C83.701 25.7493 83.5845 25.6327 83.5845 25.4903V7.16792C83.5845 7.02545 83.701 6.90887 83.8435 6.90887H86.0791C86.1646 6.90887 86.2449 6.9503 86.2915 7.02025L95.7985 20.7445H95.9721V7.16792C95.9721 7.02545 96.0887 6.90887 96.2311 6.90887H98.5289C98.6713 6.90887 98.7879 7.02545 98.7879 7.16792Z" fill="url(#paint3_linear_92_13548)"/>
<path d="M116.526 11.8566C116.402 11.8566 116.301 11.7659 116.28 11.6442C116.143 10.8748 115.749 10.2712 115.096 9.82828C114.384 9.34645 113.49 9.10559 112.41 9.10559C111.638 9.10559 110.97 9.22732 110.405 9.46823C109.84 9.70915 109.402 10.0407 109.094 10.4604C108.783 10.8801 108.63 11.3567 108.63 11.8903C108.63 12.3385 108.737 12.7245 108.949 13.0483C109.161 13.3721 109.439 13.6441 109.786 13.8616C110.133 14.0792 110.506 14.2606 110.902 14.4057C111.299 14.5507 111.685 14.6673 112.052 14.7605L113.892 15.2398C114.493 15.3874 115.109 15.5869 115.741 15.8382C116.373 16.0895 116.959 16.421 117.498 16.8329C118.036 17.2448 118.474 17.7526 118.808 18.3587C119.142 18.9649 119.311 19.6928 119.311 20.5399C119.311 21.6071 119.036 22.5552 118.487 23.3816C117.938 24.2106 117.145 24.8634 116.104 25.34C115.065 25.8192 113.809 26.0576 112.337 26.0576C110.866 26.0576 109.705 25.8348 108.677 25.3866C107.646 24.9385 106.84 24.3038 106.258 23.4775C105.724 22.7211 105.408 21.8351 105.312 20.8171C105.299 20.6668 105.421 20.5373 105.571 20.5373H107.913C108.045 20.5373 108.151 20.6358 108.169 20.7679C108.252 21.3481 108.465 21.8351 108.812 22.234C109.2 22.6848 109.7 23.0189 110.312 23.2365C110.923 23.4541 111.591 23.5629 112.322 23.5629C113.125 23.5629 113.842 23.436 114.469 23.1821C115.096 22.9283 115.594 22.5708 115.956 22.1149C116.319 21.659 116.5 21.1228 116.5 20.5088C116.5 19.9519 116.342 19.4933 116.026 19.1385C115.71 18.7836 115.285 18.4882 114.746 18.2551C114.21 18.0219 113.604 17.8173 112.931 17.6386L110.705 17.0324C109.198 16.6205 108.003 16.0169 107.123 15.219C106.242 14.4212 105.802 13.3669 105.802 12.0535C105.802 10.9681 106.097 10.02 106.685 9.21178C107.273 8.40356 108.071 7.77147 109.076 7.32073C110.081 6.86999 111.216 6.64465 112.48 6.64465C113.744 6.64465 114.881 6.86739 115.86 7.31554C116.84 7.76369 117.609 8.37766 118.174 9.15998C118.687 9.86977 118.977 10.678 119.044 11.5768C119.054 11.7245 118.933 11.8489 118.785 11.8489H116.531L116.526 11.8566Z" fill="url(#paint4_linear_92_13548)"/>
<path d="M124.883 9.0978V7.16792C124.883 7.02545 125 6.90887 125.142 6.90887H139.206C139.348 6.90887 139.465 7.02545 139.465 7.16792V9.0978C139.465 9.24028 139.348 9.35685 139.206 9.35685H133.846C133.704 9.35685 133.587 9.47342 133.587 9.6159V25.4903C133.587 25.6327 133.471 25.7493 133.328 25.7493H131.012C130.87 25.7493 130.753 25.6327 130.753 25.4903V9.6159C130.753 9.47342 130.637 9.35685 130.494 9.35685H125.142C125 9.35685 124.883 9.24028 124.883 9.0978Z" fill="url(#paint5_linear_92_13548)"/>
<path d="M145.782 25.4903V7.16792C145.782 7.02545 145.898 6.90887 146.041 6.90887H157.335C157.478 6.90887 157.594 7.02545 157.594 7.16792V9.0978C157.594 9.24028 157.478 9.35685 157.335 9.35685H148.885C148.743 9.35685 148.626 9.47342 148.626 9.6159V14.8382C148.626 14.9807 148.743 15.0973 148.885 15.0973H156.719C156.861 15.0973 156.978 15.2139 156.978 15.3563V17.2759C156.978 17.4183 156.861 17.5349 156.719 17.5349H148.885C148.743 17.5349 148.626 17.6515 148.626 17.7939V23.0448C148.626 23.1873 148.743 23.3039 148.885 23.3039H157.447C157.589 23.3039 157.706 23.4204 157.706 23.5629V25.4929C157.706 25.6353 157.589 25.7519 157.447 25.7519H146.043C145.901 25.7519 145.784 25.6353 145.784 25.4929L145.782 25.4903Z" fill="url(#paint6_linear_92_13548)"/>
<path d="M164.511 25.4903V7.16792C164.511 7.02545 164.627 6.90887 164.77 6.90887H167.094C167.236 6.90887 167.353 7.02545 167.353 7.16792V23.0422C167.353 23.1847 167.469 23.3013 167.612 23.3013H175.629C175.772 23.3013 175.888 23.4178 175.888 23.5603V25.4903C175.888 25.6327 175.772 25.7493 175.629 25.7493H164.767C164.625 25.7493 164.508 25.6327 164.508 25.4903H164.511Z" fill="url(#paint7_linear_92_13548)"/>
<path d="M182.237 25.4903V7.16792C182.237 7.02545 182.354 6.90887 182.497 6.90887H184.82C184.963 6.90887 185.079 7.02545 185.079 7.16792V23.0422C185.079 23.1847 185.196 23.3013 185.338 23.3013H193.356C193.498 23.3013 193.615 23.4178 193.615 23.5603V25.4903C193.615 25.6327 193.498 25.7493 193.356 25.7493H182.494C182.351 25.7493 182.235 25.6327 182.235 25.4903H182.237Z" fill="url(#paint8_linear_92_13548)"/>
<path d="M202.309 25.7493H199.846C199.667 25.7493 199.54 25.5705 199.602 25.4022L206.195 7.07982C206.231 6.9762 206.33 6.90887 206.439 6.90887H209.358C209.467 6.90887 209.565 6.9762 209.602 7.07982L216.194 25.4022C216.254 25.5705 216.13 25.7493 215.951 25.7493H213.487C213.376 25.7493 213.278 25.6793 213.241 25.5757L207.975 10.3335H207.827L202.553 25.5757C202.517 25.6793 202.418 25.7493 202.307 25.7493H202.309ZM203.26 18.3717H212.529C212.671 18.3717 212.788 18.4882 212.788 18.6307V20.5036C212.788 20.6461 212.671 20.7627 212.529 20.7627H203.26C203.118 20.7627 203.001 20.6461 203.001 20.5036V18.6307C203.001 18.4882 203.118 18.3717 203.26 18.3717Z" fill="url(#paint9_linear_92_13548)"/>
<path d="M218.967 9.0978V7.16792C218.967 7.02545 219.084 6.90887 219.226 6.90887H233.29C233.432 6.90887 233.549 7.02545 233.549 7.16792V9.0978C233.549 9.24028 233.432 9.35685 233.29 9.35685H227.93C227.788 9.35685 227.671 9.47342 227.671 9.6159V25.4903C227.671 25.6327 227.555 25.7493 227.412 25.7493H225.096C224.954 25.7493 224.837 25.6327 224.837 25.4903V9.6159C224.837 9.47342 224.721 9.35685 224.578 9.35685H219.226C219.084 9.35685 218.967 9.24028 218.967 9.0978Z" fill="url(#paint10_linear_92_13548)"/>
<path d="M242.709 7.16789V25.4902C242.709 25.6327 242.593 25.7493 242.45 25.7493H240.127C239.984 25.7493 239.868 25.6327 239.868 25.4902V7.16789C239.868 7.02541 239.984 6.90884 240.127 6.90884H242.45C242.593 6.90884 242.709 7.02541 242.709 7.16789Z" fill="url(#paint11_linear_92_13548)"/>
<path d="M266.321 16.3277C266.321 18.3379 265.953 20.0658 265.217 21.5112C264.482 22.9567 263.474 24.0655 262.194 24.84C260.915 25.6171 259.464 26.0031 257.84 26.0031C256.215 26.0031 254.754 25.6146 253.475 24.84C252.195 24.0655 251.19 22.9515 250.452 21.5061C249.716 20.058 249.348 18.3327 249.348 16.3277C249.348 14.3227 249.716 12.5871 250.452 11.1442C251.187 9.70131 252.195 8.59003 253.475 7.8129C254.754 7.03835 256.208 6.64978 257.84 6.64978C259.472 6.64978 260.917 7.03835 262.194 7.8129C263.474 8.59003 264.479 9.69872 265.217 11.1442C265.956 12.5897 266.321 14.3175 266.321 16.3277ZM263.505 16.3277C263.505 14.7942 263.259 13.5015 262.764 12.4498C262.269 11.3981 261.596 10.6002 260.741 10.0588C259.886 9.51481 258.917 9.24537 257.84 9.24537C256.762 9.24537 255.785 9.5174 254.933 10.0588C254.081 10.6002 253.407 11.3981 252.915 12.4498C252.42 13.5015 252.174 14.7942 252.174 16.3277C252.174 17.8613 252.42 19.1539 252.915 20.2056C253.41 21.2574 254.081 22.0552 254.933 22.5966C255.785 23.1406 256.754 23.4101 257.84 23.4101C258.925 23.4101 259.886 23.138 260.741 22.5966C261.596 22.0552 262.272 21.2574 262.764 20.2056C263.259 19.1539 263.505 17.8613 263.505 16.3277Z" fill="url(#paint12_linear_92_13548)"/>
<path d="M288.169 7.16792V25.4903C288.169 25.6327 288.052 25.7493 287.91 25.7493H285.692C285.607 25.7493 285.527 25.7078 285.48 25.6379L275.981 11.9318H275.807V25.4903C275.807 25.6327 275.69 25.7493 275.548 25.7493H273.224C273.082 25.7493 272.965 25.6327 272.965 25.4903V7.16792C272.965 7.02545 273.082 6.90887 273.224 6.90887H275.46C275.545 6.90887 275.626 6.9503 275.672 7.02025L285.179 20.7445H285.353V7.16792C285.353 7.02545 285.47 6.90887 285.612 6.90887H287.91C288.052 6.90887 288.169 7.02545 288.169 7.16792Z" fill="url(#paint13_linear_92_13548)"/>
<defs>
<linearGradient id="paint0_linear_92_13548" x1="-0.000355205" y1="32.707" x2="30.6916" y2="11.3032" gradientUnits="userSpaceOnUse">
<stop stop-color="#0D062C"/>
<stop offset="1" stop-color="#565991"/>
</linearGradient>
<linearGradient id="paint1_linear_92_13548" x1="37.8088" y1="26.0055" x2="56.8619" y2="10.049" gradientUnits="userSpaceOnUse">
<stop stop-color="#0D062C"/>
<stop offset="1" stop-color="#565991"/>
</linearGradient>
<linearGradient id="paint2_linear_92_13548" x1="59.967" y1="26.003" x2="79.1549" y2="9.17538" gradientUnits="userSpaceOnUse">
<stop stop-color="#0D062C"/>
<stop offset="1" stop-color="#565991"/>
</linearGradient>
<linearGradient id="paint3_linear_92_13548" x1="83.5842" y1="25.7492" x2="102" y2="10.8888" gradientUnits="userSpaceOnUse">
<stop stop-color="#0D062C"/>
<stop offset="1" stop-color="#565991"/>
</linearGradient>
<linearGradient id="paint4_linear_92_13548" x1="105.311" y1="26.0575" x2="123.731" y2="12.7736" gradientUnits="userSpaceOnUse">
<stop stop-color="#0D062C"/>
<stop offset="1" stop-color="#565991"/>
</linearGradient>
<linearGradient id="paint5_linear_92_13548" x1="124.883" y1="25.7492" x2="143.122" y2="11.6333" gradientUnits="userSpaceOnUse">
<stop stop-color="#0D062C"/>
<stop offset="1" stop-color="#565991"/>
</linearGradient>
<linearGradient id="paint6_linear_92_13548" x1="145.782" y1="25.7518" x2="162.81" y2="14.9758" gradientUnits="userSpaceOnUse">
<stop stop-color="#0D062C"/>
<stop offset="1" stop-color="#565991"/>
</linearGradient>
<linearGradient id="paint7_linear_92_13548" x1="164.508" y1="25.7492" x2="181.184" y2="15.6767" gradientUnits="userSpaceOnUse">
<stop stop-color="#0D062C"/>
<stop offset="1" stop-color="#565991"/>
</linearGradient>
<linearGradient id="paint8_linear_92_13548" x1="182.235" y1="25.7492" x2="198.911" y2="15.6766" gradientUnits="userSpaceOnUse">
<stop stop-color="#0D062C"/>
<stop offset="1" stop-color="#565991"/>
</linearGradient>
<linearGradient id="paint9_linear_92_13548" x1="199.586" y1="25.7492" x2="218.28" y2="9.25555" gradientUnits="userSpaceOnUse">
<stop stop-color="#0D062C"/>
<stop offset="1" stop-color="#565991"/>
</linearGradient>
<linearGradient id="paint10_linear_92_13548" x1="218.967" y1="25.7492" x2="237.206" y2="11.6333" gradientUnits="userSpaceOnUse">
<stop stop-color="#0D062C"/>
<stop offset="1" stop-color="#565991"/>
</linearGradient>
<linearGradient id="paint11_linear_92_13548" x1="239.868" y1="25.7492" x2="245.425" y2="24.9109" gradientUnits="userSpaceOnUse">
<stop stop-color="#0D062C"/>
<stop offset="1" stop-color="#565991"/>
</linearGradient>
<linearGradient id="paint12_linear_92_13548" x1="249.348" y1="26.003" x2="268.536" y2="9.17534" gradientUnits="userSpaceOnUse">
<stop stop-color="#0D062C"/>
<stop offset="1" stop-color="#565991"/>
</linearGradient>
<linearGradient id="paint13_linear_92_13548" x1="272.965" y1="25.7492" x2="291.38" y2="10.8887" gradientUnits="userSpaceOnUse">
<stop stop-color="#0D062C"/>
<stop offset="1" stop-color="#565991"/>
</linearGradient>
</defs>
</svg>
